{
  "asset": { "version": "2.0", "generator": "museum-placeholder" },
  "scene": 0,
  "scenes": [{ "name": "ConceptSilhouette", "nodes": [0] }],
  "nodes": [{ "name": "FuselageWing", "mesh": 0 }],
  "meshes": [
    {
      "name": "PlaceholderMesh",
      "primitives": [
        {
          "attributes": { "POSITION": 0 },
          "indices": 1,
          "mode": 4
        }
      ]
    }
  ],
  "buffers": [
    {
      "uri": "data:application/octet-stream;base64,",
      "byteLength": 80
    }
  ],
  "bufferViews": [
    { "buffer": 0, "byteOffset": 0, "byteLength": 48, "target": 34962 },
    { "buffer": 0, "byteOffset": 48, "byteLength": 12, "target": 34963 }
  ],
  "accessors": [
    { "bufferView": 0, "componentType": 5126, "count": 4, "type": "VEC3", "max": [1, 0.1, 0.3], "min": [-1, -0.1, -0.3] },
    { "bufferView": 1, "componentType": 5123, "count": 6, "type": "SCALAR" }
  ]
}
